<?xml version="1.0" encoding="UTF-8"?>
<svg width="512" height="512" viewBox="0 0 512 512" fill="none" xmlns="http://www.w3.org/2000/svg">
  <rect width="512" height="512" rx="64" fill="black"/>
  <path d="M80 180L128 330H172L192 270H272L292 330H336L384 180H340L302 300H252L232 240H232L212 300H162L124 180H80Z" fill="url(#paint0_linear)"/>
  <path d="M88 360C88 357.791 89.7909 356 92 356H420C422.209 356 424 357.791 424 360V378C424 380.209 422.209 382 420 382H92C89.7909 382 88 380.209 88 378V360Z" fill="url(#paint1_linear)"/>
  <defs>
    <linearGradient id="paint0_linear" x1="80" y1="180" x2="391.865" y2="312.399" gradientUnits="userSpaceOnUse">
      <stop stop-color="#3B82F6"/>
      <stop offset="0.5" stop-color="#EC4899"/>
      <stop offset="1" stop-color="#3B82F6"/>
    </linearGradient>
    <linearGradient id="paint1_linear" x1="88" y1="356" x2="425.677" y2="373.428" gradientUnits="userSpaceOnUse">
      <stop stop-color="#3B82F6"/>
      <stop offset="0.5" stop-color="#EC4899"/>
      <stop offset="1" stop-color="#3B82F6"/>
    </linearGradient>
  </defs>
</svg> 